/* XPM */
static char *e75bd6a600bf40b59558fbc3c0ce5a0faJK9HKGvtjAOLAge[] = {
/* columns rows colors chars-per-pixel */
"64 64 256 2 ",
"   c #000000",
".  c #040609",
"X  c #11100C",
"o  c #2C100A",
"O  c #351A16",
"+  c #172A12",
"@  c #2B2E15",
"#  c #121620",
"$  c #312C25",
"%  c #373828",
"&  c #450303",
"*  c #4D170D",
"=  c #6D110C",
"-  c #532F0B",
";  c #472819",
":  c #572A18",
">  c #58351B",
",  c #6B2514",
"<  c #66351B",
"1  c #753A1B",
"2  c #5A1129",
"3  c #522E2D",
"4  c #473828",
"5  c #593A25",
"6  c #663B23",
"7  c #713029",
"8  c #643737",
"9  c #2D4A12",
"0  c #334B24",
"q  c #3A632A",
"w  c #6C461A",
"e  c #5A442B",
"r  c #4C4C30",
"t  c #574937",
"y  c #674529",
"u  c #794526",
"i  c #744F2F",
"p  c #644836",
"a  c #685539",
"s  c #765739",
"d  c #527031",
"f  c #706C39",
"g  c #673244",
"h  c #524B49",
"j  c #585648",
"k  c #695845",
"l  c #71544B",
"z  c #596951",
"x  c #796749",
"c  c #716851",
"v  c #74746A",
"b  c #8B1717",
"n  c #A9150F",
"m  c #8A331A",
"M  c #B62C19",
"N  c #89312C",
"B  c #B23026",
"V  c #C41C16",
"C  c #CA3328",
"Z  c #924A1D",
"A  c #B14A1E",
"S  c #87601D",
"D  c #864A26",
"F  c #8B572C",
"G  c #95552E",
"H  c #97582B",
"J  c #865938",
"K  c #B84C25",
"L  c #A55827",
"P  c #926735",
"I  c #996737",
"U  c #AD6F36",
"Y  c #A66A39",
"T  c #B66934",
"R  c #CF5B13",
"E  c #D04E36",
"W  c #C77533",
"Q  c #973961",
"!  c #8C5250",
"~  c #B05056",
"^  c #886847",
"/  c #976B44",
"(  c #9B754A",
")  c #8A7054",
"_  c #997855",
"`  c #A87846",
"'  c #AB744A",
"]  c #B47948",
"[  c #A57C56",
"{  c #8F5764",
"}  c #887867",
"|  c #8E716E",
" . c #987B66",
".. c #A97167",
"X. c #CC5144",
"o. c #D77255",
"O. c #D05D6A",
"+. c #5E8630",
"@. c #6E8E30",
"#. c #759447",
"$. c #718465",
"%. c #849734",
"&. c #B1863A",
"*. c #8CA938",
"=. c #CF8C38",
"-. c #DBA03B",
";. c #E7A630",
":. c #95874F",
">. c #B48449",
",. c #A98658",
"<. c #B58A5A",
"1. c #AB9153",
"2. c #BD9357",
"3. c #AAA952",
"4. c #988467",
"5. c #878578",
"6. c #908F72",
"7. c #988978",
"8. c #A88865",
"9. c #B28D63",
"0. c #BA9568",
"q. c #A78B78",
"w. c #AA9474",
"e. c #BA9975",
"r. c #B7A871",
"t. c #CF8F4E",
"y. c #C89759",
"u. c #D59958",
"i. c #E2975A",
"p. c #CDAC54",
"a. c #D9A65A",
"s. c #EBB04B",
"d. c #E5AB58",
"f. c #E8B55A",
"g. c #C89A67",
"h. c #CD906D",
"j. c #C29C6D",
"k. c #D39D66",
"l. c #C29D72",
"z. c #CAA36B",
"x. c #D8A769",
"c. c #D1B46C",
"v. c #CAA374",
"b. c #C9A678",
"n. c #D6A975",
"m. c #D3AC7B",
"M. c #D8B57A",
"N. c #DDB47B",
"B. c #E4AC6B",
"V. c #E7B669",
"C. c #E5B075",
"Z. c #E4B374",
"A. c #E2B47C",
"S. c #E9BA79",
"D. c #B3C773",
"F. c #F4C658",
"G. c #CFCD72",
"H. c #F1C76E",
"J. c #ECC378",
"K. c #F2C579",
"L. c #B07D8A",
"P. c #74808A",
"I. c #928F87",
"U. c #959488",
"Y. c #AB9989",
"T. c #B09791",
"R. c #94A288",
"E. c #B9A687",
"W. c #A9A698",
"Q. c #B6A695",
"!. c #B2B0A8",
"~. c #B8B5AA",
"^. c #C99092",
"/. c #CDAC83",
"(. c #C9AA86",
"). c #D3AC83",
"_. c #CAB488",
"`. c #D7B487",
"'. c #DCBB84",
"]. c #DDBB8C",
"[. c #C9B596",
"{. c #D6B992",
"}. c #DDBC93",
"|. c #E5B986",
" X c #E3BC8B",
".X c #E4AB91",
"XX c #E5BC96",
"oX c #D794A0",
"OX c #CBB6AF",
"+X c #C7B9AA",
"@X c #E6A9A7",
"#X c #BFC1BB",
"$X c #D9C48B",
"%X c #DBC397",
"&X c #EAC58A",
"*X c #F2C887",
"=X c #F5D588",
"-X c #E4C294",
";X c #EAC494",
":X c #E6CB96",
">X c #E4C49B",
",X c #EBC69A",
"<X c #ECC99B",
"1X c #F1CB96",
"2X c #EBD492",
"3X c #F4D798",
"4X c #E5E899",
"5X c #D9C9A7",
"6X c #C7C4B8",
"7X c #D5CAB8",
"8X c #DCD5BA",
"9X c #E5C8A3",
"0X c #EBCCA3",
"qX c #ECCEAA",
"wX c #EECCAC",
"eX c #EBD4A6",
"rX c #EDD2AC",
"tX c #F3D7A7",
"yX c #EED5B5",
"uX c #E8D7B9",
"iX c #F3D9B8",
"pX c #F8E2A9",
"aX c #ECE9BA",
"sX c #F7E6B8",
"dX c #E3BBC1",
"fX c #CACAC5",
"gX c #D5CDC6",
"hX c #CCD2CC",
"jX c #D7D4C9",
"kX c #D7DAD8",
"lX c #D9DDDE",
"zX c #E9DBC6",
"xX c #F1DDC3",
"cX c #E3D8D2",
"vX c #DCE0DE",
"bX c #EBE4CA",
"nX c #F6E5C7",
"mX c #FCF1CA",
"MX c #EAE4D8",
"NX c #F5EBD9",
"BX c #F9F2D8",
"VX c #DBDFE1",
"CX c #DDE2E3",
"ZX c #E3E5E6",
"AX c #E7E8E7",
"SX c #E7E9E9",
"DX c #ECEDED",
"FX c #F3EEE7",
"GX c #EDF0EF",
"HX c #F5F3EC",
"JX c #EFF0F1",
"KX c #F2F2F4",
"LX c #F9F7F6",
"PX c #F4F5FA",
"IX c #F6F9FC",
"UX c #FCFBFE",
/* pixels */
"DXJXJXJXJXKXKXJXJXKXKXKXKXPXKXKXKXIXKXAXMXJXUXUXPXPXIXLXFXFXFXFXFXFXLXUXUXIXMXgXNXLXUXUXUXUXUXUXUXUXUXUXUXUXUXUXUXUXUXUXUXUXUXUX",
"JXJXJXJXJXJXJXJXKXKXKXKXKXKXKXPXKXvX7X5XzXcXMXMXwX9X0X,Xv.A.;X&X&X|.rXHXjXzX7XzXNXHXLXLXUXUXUXUXUXUXUXUXUXUXUXUXUXUXUXUXUXUXUXUX",
"GXJXGXFXJXJXJXJXJXKXKXKXJXKXPXZX+XE.(.OX7X9Xm.|.t.] x.t.n.S.K.=X*XpX&X_ q.7XnXxXNXBXFXFXFXUXUXUXUXUXUXUXUXUXUXUXUXUXUXUXUXUXUXUX",
"GXDXGXGXDXJXJXJXJXJXJXJXKXAX+XT.T.Q.Q.OX+X[.n.k.9.h.k.u.*X3X2XK.pXsX/.! OXuXzXwXXXXXXXxXNXNXHXUXUXUXUXUXUXUXUXUXUXUXUXUXUXUXUXUX",
"DXGXGXGXGXGXGXGXHXJXJXKXFX~. .Y.Q.Y.Q.E.( w.).Y g.B.p.V.H.3XpX3X2Xy.h.OXOXXXwXxX,X|.B.B.XXxXiXNXLXUXUXUXUXUXUXUXUXUXUXUXUXUXUXUX",
"DXGXDXDXGXJXGXGXDXGXJXGX+XY.Y.q.8.[ e.<.Y ....' ] *XJ.f.J.sXsXpX-XY E.wXS.x.1XwXiXtX1X|..XXXXXtXnXHXUXUXUXUXUXUXUXUXUXUXUXUXUXUX",
"DXDXGXDXGXGXGXGXDXGXHX6X7.4._ ) ) w.0.] ] ' / h.t.M.*Xs.pXmXmXnX].0.).0X3XK.|.rXnXmXiXiXwXtX1XXXiXnXFXUXUXUXUXUXUXUXUXUXUXUXUXUX",
"DXDXDXDXDXDXDXDXDXGX6X7. ._ _ ^ _ _ Y L U T Y [ h.x.J.&XmXsXsXuX0.v.S.|.tXtX*X,XiXnXnXtX|.1XtX1XXXiXiXxXLXUXUXUXUXUXUXUXUXUXUXUX",
"DXSXDXGXDXDXDXDXJXjX4.^ ^ / s J ,.I H U L L U ] ] y.:XaXmXBXnXM.=.=.Z.B.*X3X=X*XC.C.S.B.C. XwXtXtXiXiXtXxXKXUXUXUXUXUXUXUXUXUXUX",
"SXDXSXGXDXSXDXDXAX7.s l ^ i m / Y H L L A Z ' ] i.x.iXpXmXHXrXa.u.u.k.Z.S.*X=X=X1XK.S.S.C.|.XXiXwXwX1X3XiXxXHXUXUXUXUXUXUXUXUXUX",
"SXSXSXSXAXDXAXGX~.i k a s J D / Y L T U L U T T u.*XtX2XsXiXa.A.|.S.Z.B.f.=X3XpXpXmXsXtXtX*X|.XX.Xn.1XtXnXmXxXUXUXUXUXUXUXUXUXUX",
"SXDXSXSXSXAXGXvX) a s i 7 1 1 D H T T U U T W W i.*XeXsXsXM.x.g.x.k.B.C.H.H.K.=X3XpXsXpXmXsX;X|.|.XX.XXXiXnXiXFXUXUXIXUXUXUXUXUX",
"SXSXSXSXAXAXGX~.> p i 1 < 1 D 1 H T L U E W W W i.H.3XpXrXc.a.p.t.d.u.f.f.;.f.F.3X3X=XH.=XpXpXpXXXwX1XXX0XrXtXnXUXUXUXUXUXUXUXUX",
"SXAXSXSXAXSXkXx > p p 6 < < , D m m H T W W =.-.d.3X2XeX:Xp.f.B.u.-.d.s.d.f.s.V.=X3X3X=X=XK.=X=X3X3X1X|..XXXtXiXKXUXPXUXUXUXUXUX",
"SXSXSXAXAXDX~.> e p y 5 : , < 1 D F L t.=.W =.-.H.3XeX:XM.f.V.H.V.p.f.H.H.K.V.d.f.J.pXpXsXpX=XH.=X3XpX*XB.A.1XtXFXUXUXUXUXUXIXUX",
"AXAXAXAXAXAX6.- e 6 y : < 1 - - u H L T W W -.f.H.3XeXM.p.V.V.H.f.H.V.s.F.J.f.d.d.f.=XpXpXsXpXpX=XtXsXtX<X3X3X1XNXIXUXPXUXUXUXUX",
"AXAXZXZXSXkXx - y a a a s s k s s J I ' [ P 2.c.N.$X_.z.V.M.a.a.d.a.s.;.2.t.&.>.] t.t.o.t.s.-.H.r.I 1.).%X2XnXBXHXIXIXIXUXUXUXUX",
"AXAXSXSXSXCXW.4.$.i f a r % 0 % r 4 % t r + % t r r 4 t a 4.b.2.:.- S J + : < 1 Z K K R R ;.;.eX8XQ.w.<.b.M.&XBXIXPXUXIXIXIXUXIX",
"AXZXZXZXSXSXMXvX6X!.w.v h $ $ $ # X O O $ 3 4 4 ; O       $ a r $ . O X O * = m L =.-.;.F.F.=XuXaXaXBX8X`.5XuXJXIXIXIXIXUXIXUXIX",
"CXZXZXZXCXZXCXCXSXZX#X6.h % % % + @ 4 e 8 5 6 l i p p 5 e ; o o o $ ; O . - < D b o.t.=.F.K.8X8XuX8XBXUXbXsXuXnXHXIXIXIXIXIXIXUX",
"ZXZXCXCXCXCXCXvX#X6.r + @ 9 q @ 0 a f f f ^ x a e ; ; $ O O X $ $ o O % % y L &.=.-.H.G.5XzXjXaXuXzXNXHXFXaXnX$X:XFXIXIXIXIXUXIX",
"ZXZXCXCXCXCXlXW.r 9 9 9 @ + 0 $.} :.6.6.w.E.r.w.4.^ f w @   X d z   X % k v r._.$X$XeXbXMXbX8X8X8X8XbXjXE.eXBXbXz.p.bXKXIXIXIXIX",
"CXCXCXCXCXfX$.9 0 0 0 + @   d Y.w.r._.[.Q.5XeX_.r.e.:.1._ r   +.q 0 # X @ t } W.6X7X7XjXzX7X7X5X8XuXuXr.:.$XeXBXbXb.p.nXIXIXIXIX",
"ZXZXZXlX!.d 9 9 0 + + X + + z w.r.Q.E._.$X%X%X5X_.b.r.r.r.a   +.+.d v P.I.z o a 4.e.[.[.5X5X5X8X[.Y.E.2X{._.G.>XBXBXnXKXIXIXUXIX",
"CXlXfXP.9 9 0 0 + + # + 0 0 d w.r.E.$X_.{.$X$XE.$XE.1.r.:.X X d +.+.#.#.P.z @ O e s ) 8.q.Y.^.e.v 8 q.T.%X%X_.J.2XsXBXLXLXLXIXUX",
"hXR.9 X 9 9 9 9 0 + . 0 0 0 r x 6.c.M.G.r.r.M.$X$X4X[._.x   + r +.+.@.@.9 . > 4 o & u P & : { 7 ! { 2 ; 4._.$X$XJ.3XaXmXLXLXIXIX",
"vXhX~.~.R.v t t k t 0 0 q d r f f 1.r.c.p.c.c.`.2X2X5Xw.@     q +.@.+.*.d # % O ^ ( i ! l T.oX! { l & o   ) ].:XeX2X3XpXsXLXIXIX",
"vXCXCXCXlXCXT.N ! ! ! x d 8.^ k x ^ 1.r.3.3.-.p.G.j.v.%Xw. .s r d @.+.#.@.# $ .  .g./ { ^.oXT.7 { oX~.T.) D ] z.G.J.2X&XaXLXIXIX",
"vXlXlXkXkXlX6Xi N b = = - ; O a x x ) :.1.:.y.G.p.i , >.2XtX_.e.f 9 d @.c g 7 & o { ^.fXdXoXT...O.oX@XzXdXuXOX@X$X].:XtXHXIXPXIX",
"lXlXlXlXlXCXjXv y t i ! s 4 a s e x _ k f J f :.:.J ( - P -X>Xb.b.e 9 d %.F = l T.!.6XoX^.oX9.G.%Xv..XO.O.^.@X@X@X.XbXHXLXIXIXIX",
"lXlXlXlXlXhX#XY.^ _ 9.[ _ x p 3 e e.`._ [ / 4 O s ,.1.s e 3.z.1.9.^ *.3.*.D.5.| OXL.~ Q v L.p.G.G.aXsX$Xb n n C X..XDXPXKXKXPXPX",
"lXlXlXhXR.I.v z ^ / i y / [ t O a 0.b.b.0.8.l 2 s >.9.s :.D.G.r.:.@.*.%.*.D.} g { { { Q ! | &.3.G.4X4Xb.2 m B C E @XJXKXPXPXKXPX",
"lXlXlXlX!.c 8 6 h 8 3 _ [ ..) 8 3 / [ ..! l 8 o o 6 ^ e :.D.G.G.G.*.@.@.@.3.6.8 2 3 ! n ..~ M B K =.B.h.n B B V i.wXAXPXKXPXPXPX",
"lXlXlXlXCXhX .* l | h l 8 g 8 8 x ..! 2 2 o   . .   . o e :.1.1.1.#.d @.*.:.8 h h 3 = N { M M V V V C E E E X..XwX,XxXPXKXKXPXKX",
"lXkXlXkXVXVX6.w } 7. .| | } | | ..l 8 7 , N 7 , * O o O & & & , 1 6 d d #.f = g 8 7 = G ! n M M B C C C E O.o.XXwX*XnXKXPXPXKXKX",
"lXkXlXlXlXlX4.w l v | q.q.| { { g 2 , , b b b 7 , * : O ; : , , b , r d q Z ~ X.M C X.Q b = = = b n n C E E o.1X*X|.yXJXPXKXKXKX",
"~.+X6X6X+X6X} - J 8 g g g 8 8 7 : : < < 1 < : * & o         o , , b 1 q r M C C C C E B B i 6 F L L E W t.C.S.*XXXS.wXFXJXPXJXJX",
"q.w.w.8.w.w.^ y 5 y y 5 > < * - < 1 D G L I P J [ ` / c c k p * D N m u Z B A M A K T h.|.C.x.C.C.B.S.S.*X*XK.V.*X0XxXcXcXMXMXlX",
"4.4._ 8.,.8.^ 5 5 y > 6 5 : : < 1 F G G H L Y >.g.y.t.z.c.b.z.,.] U Y Y Y ' g.y.y.z.&X<X*XS.B.V.C.B.V.*XS.K.K.K.1XtXxXuXuXzXzXzX",
"7.7.4.} 5.4.x > e y > 5 6 < 5 1 D H Y H F Y >.` <.0.2.n.0.z.b.z.g.z.v.z.z.m.M.m.|.*X*X0X<XZ.M.V.B.V.K.S.K.*X*X|.*X1XiXMXFXHXLXHX",
"U.U.I.I.$.5.c > e e > < 6 < 6 D G P I I F Y I U <.b.0.z.b.b.v.z.b.).'.M.c.N.M.m.M.Z.a.x.|.S.|.Z.S.H.*XK.K.K.K.*X1XwXiXUXUXUXUXUX",
"6.U.I.I.I.P.l 6 y y 5 5 6 6 6 D / F G I / ` ( ` 9.0.0.2.c.M.b.m.M.M.'.'.'.N.'.&X$XA.N.x.x.B.&X1XK.J.K.V.K.S.*X1XiXtXiXUXUXUXUXUX",
"I.I.v I.v v a 5 y < > > 6 u 1 u D D J J ( ` ` I &.1.z.z.z.c.m.m.'.'.`.'.-X$XM.'.&X$XN.S.C.B.N.;XZ.V.S.V.S.1X*XtXiXZ.wXUXUXUXUXUX",
"v $.v v v v k 5 y 5 : : : 6 < u D J ^ ^ P I Y I U >.2.y.z.b.m.M.M.M.'.$X X X$X'.N.S.x.c.n.N.k.k.B.Z.B.B.*X1XS.XXXXXXFXLXLXKXLXUX",
"I.v v v v z j t > 5 > > < 6 6 1 u i ^ P P G P ` I >.&.2.0.z.v.c.m.m.'.'.'.$X-X-XN.N.n.n.g.n.m.k.u.x.x.B.|.B.i.n.9XLXUXLXLXLXLXLX",
"W.I.v v z h h h 4 e > : < 6 1 1 u u J J J F F I P &.>.&.y.g.z.x.n.b.n.z.n.M.M.'.M.M.n.k.v.n.m.h.n.k.u.k.n.C.h.h.gXUXUXUXLXLXLXUX",
"#X!.W.I.P.z h % $ % $ ; > y 6 < 6 1 u u 1 F P F Y U U &.>.2.y.z.z.z.x.n.v.n.z.x.y.y.l.g.g.h.l.y.h.h.n.).e.q.Q.OXFXUXUXLXLXLXUXLX",
"fXfXOX~.!.W.$.v h @     o $ 4 5 5 6 1 u 1 u F F P U I :.>.>.<.y.z.z.g.v.n.g.k.g.>.>.<.<.>.y.] ' ' [ q. .7.~.MXJXLXLXLXLXLXLXLXKX",
"hXhXfXfXfX6X~.~.!.I.v h X       X o ; : - : 1 1 m F F H P I U >.] y.<.y.y.0.h.>.U I I ^ ^ ^ 7.T.W.OXfXfXAXLXLXJXUXUXKXKXUXUXKXHX",
"hXhXhXfXhXjXkXkXhXhXfX#XW.I.v v h $ @ X o o o o o & & - , 1 D F G G I Y H F F J _ q.T.OXfXfXDXUXLXUXUXIXUXHXFXFXFXFXAXMXcXcXcXjX",
"I.W.I.I.I.5.W.!.!.!.W.W.W.!.!.!.W.W.U.I.7.5.5.v c j j 3 4 r e y k k k c } | 7.W.!.OXgX7XgXkXkXjXhXOX+X+XQ.W.Q.T.Y.7. . .4. .4.8.",
"- > : : 5 > > 6 a k p p e e p t j l c l c l c c k p h 4 e t p p k ^ 4.Y.E.Q.Y.8.8.9.e.e.e.l.e.e.0.] <.9.0.e.b.b.(./.).(.{.}.{.{.",
"/ I I / [ ( / ( ( [ _ ( ,._ ( ( [ [ [ [ ,.[ [ ( ( ( / ( [ >.,.0.e.l.b.`.`.'.N.A.A.-X-X X|.A.A.A.`.A.;X,X0XqXrXiXiXiXiXiXiXiXxXnX",
"9.<.9.9.9.9.9.9.0.0.e.0.0.e.0.0.l.l.(.b.b./.`.`.{.{.].XX}.-X}.9X0XA.N.|.>X0XXX X<X-X>X0X0X<X,X X XXX<X,XXX-X>X0XwXyXyXyXiXxXnXzX",
"l.b.b.l.l.l.b.(.(.(.(.b.m././.m.).).m.).`.{.}.>XXXXXXXXXXXqXqXqX0X X|.XX<X9XqX9XqXqX0XqXqXrX0X}.9X0X<X0X>X<XqXrXyXyXiXxXxXxXxXbX",
").).{.{.`.).).`.m.).`.}.}.{.{.].}.}. X`.}.].].|.).C.m.n.N.`.9X0X9X9X;X9XrX9X>X0X0XrXqXqXwXqX>X X<X,X-X,XXX-X0X0XqXwXiXuXxXxXxXzX",
"m.`.].`.).m.g.k.v.). X].}.}.}.%X%X9XXX>X>X>XXX XZ.x.x.d.a.x.Z.A.A.|.&X,XrX,X|.>X;X].>X<X<X<X-X X;X;X1X;X X;X<X0XyXiXxXiXuXuXxXuX",
"z.x.m.x.k.a.z.n.m.k.m. XXX>X>X9X>X9X>X>X>X>X,X<X-X X|.Z.Z.B.Z.S.|.,X<X<X,X|.|.&X,X,X;X<X<X>X&X,X,X,X0X0X0XrXyXiXyXyXiXiXuXiXyXiX",
"a.u.y.y.u.k.y.z.k.n.g.'. X`.].]. X].|.A.x.x.B.x.x.B.x.Z.Z.A.A. X;X1X,X;X&XA.1X<X,X,X0X0X<X,X;X<X1X&X<X;X&X&X;X,X0XrXrXrXyXyXyXyX",
"a.y.u.x.x.x.n.n.).|.A.n.n.x.m.m.m.A.x.n.a.u.a.x.a.B.a.u.x.B.A.'.|.|.'. X X|.N.A.|.'.|.'.|.*X;X-X;X,X<XS.B.V.S.S.;X<X0X0XrXrX0XrX",
"0.0.0.<.j.0.j.v.e.v.b.z.g.0.j.j.b.v.v.b.v.n.l.m.m.v.m.l.b.b.m.m.).M.m.).`.`.).`.'.`.n.n.m.`.`.{.`.}.}.{.`.{.{.{.}.}.%X%X%XXX}.}.",
"8.9.9.<.,.,.' 9.9.0.0.0.<.,.,.,.,.,.0.9.0.0.0.j.e.j.l.l.0.e.v.e.j.e.v.b.b.b.(.b././././././././.)._.).[.(.(._.`.`.`.[./.`.[.`.[.",
"<.,.9.9.1.>.,.9.9.9.0.0.e.0.0.<.9.0.0.0.0.0.0.0.j.j.g.0.0.0.j.j.j.j.v.v.v.b.b././././.)././././.(.).).(.(.b.(./.(.(./././.(././.",
",.8.,.,.,.<.0.9.0.0.0.0.9.<.9.<.0.0.e.l.l.v.j.0.j.j.j.j.v.v.v.b.b.b.v.v.b.b./.m.)./././././././.(.(.).`.`.`./.(.`._././.(.(.b./."
};
