/* XPM */
static char *_cac709b98c6411ce48f38643e838378UoYosvr9Zk3qhu8E[] = {
/* columns rows colors chars-per-pixel */
"64 64 251 2 ",
"   c #180300",
".  c #0E0000",
"X  c #260900",
"o  c #340800",
"O  c #3C1A01",
"+  c #381705",
"@  c #311A0C",
"#  c #3B230A",
"$  c #3D2817",
"%  c #3B3922",
"&  c #4B1D02",
"*  c #441A03",
"=  c #531D07",
"-  c #46170B",
";  c #4B2203",
":  c #4A250C",
">  c #4B2C0C",
",  c #452608",
"<  c #532403",
"1  c #5C2C04",
"2  c #542B0C",
"3  c #5B2D0C",
"4  c #552609",
"5  c #4C320B",
"6  c #5C320D",
"7  c #55330D",
"8  c #4C2C13",
"9  c #472915",
"0  c #532D12",
"q  c #5B2D12",
"w  c #582C18",
"e  c #4A3419",
"r  c #553214",
"t  c #5C3414",
"y  c #5D3A15",
"u  c #53331A",
"i  c #5B351B",
"p  c #5D3B1C",
"a  c #543A19",
"s  c #632D0D",
"d  c #682A05",
"f  c #6C3304",
"g  c #63320C",
"h  c #6B350D",
"j  c #6C3B0D",
"k  c #673808",
"l  c #733404",
"z  c #733B0D",
"x  c #7B3C0C",
"c  c #783706",
"v  c #642D14",
"b  c #643414",
"n  c #6B3513",
"m  c #653A15",
"M  c #6C3B15",
"N  c #62351B",
"B  c #6C3519",
"V  c #643B1B",
"C  c #6B3C1B",
"Z  c #733514",
"A  c #733C14",
"S  c #7B3D14",
"D  c #733D1B",
"F  c #7B3D1B",
"G  c #753618",
"H  c #752E07",
"J  c #4C3625",
"K  c #5D3C23",
"L  c #553926",
"P  c #58352C",
"I  c #643D22",
"U  c #6A3C22",
"Y  c #673B27",
"T  c #723D22",
"R  c #773B24",
"E  c #631E01",
"W  c #594218",
"Q  c #7B420A",
"!  c #6D411D",
"~  c #6A4319",
"^  c #744115",
"/  c #7B4314",
"(  c #74421C",
")  c #7B441C",
"_  c #7C4A1C",
"`  c #794917",
"'  c #594327",
"]  c #594D39",
"[  c #654224",
"{  c #6C4323",
"}  c #63432B",
"|  c #6B442A",
" . c #6D4A2C",
".. c #694B26",
"X. c #744322",
"o. c #7B4523",
"O. c #744A25",
"+. c #7C4A23",
"@. c #744B2B",
"#. c #7C4C2A",
"$. c #76452B",
"%. c #68532A",
"&. c #7B532A",
"*. c #684934",
"=. c #754C34",
"-. c #685337",
";. c #7C5333",
":. c #77563A",
">. c #7B643B",
",. c #695746",
"<. c #7B5C44",
"1. c #79634C",
"2. c #7A6756",
"3. c #5F5345",
"4. c #833C07",
"5. c #833C1A",
"6. c #863D15",
"7. c #853E25",
"8. c #884609",
"9. c #945608",
"0. c #824314",
"q. c #8C4B13",
"w. c #82441B",
"e. c #844A1C",
"r. c #8B4B1C",
"t. c #874817",
"y. c #934D18",
"u. c #88531A",
"i. c #995719",
"p. c #924F08",
"a. c #A35B1B",
"s. c #A45E08",
"d. c #996414",
"f. c #A66518",
"g. c #AF7210",
"h. c #834422",
"j. c #834B23",
"k. c #8A4C23",
"l. c #834D2A",
"z. c #8B4C2B",
"x. c #884425",
"c. c #934D25",
"v. c #845223",
"b. c #8D5224",
"n. c #85522B",
"m. c #8B542C",
"M. c #8B592C",
"N. c #93542C",
"B. c #955B2C",
"V. c #985825",
"C. c #875735",
"Z. c #935B34",
"A. c #985936",
"S. c #874D32",
"D. c #A35D36",
"F. c #A35D26",
"G. c #8B643B",
"H. c #986539",
"J. c #9A6629",
"K. c #A86728",
"L. c #B77429",
"P. c #A86835",
"I. c #B36C33",
"U. c #B77639",
"Y. c #AD6F2E",
"T. c #C47B33",
"R. c #C07E1D",
"E. c #835E46",
"W. c #8A564B",
"Q. c #876648",
"!. c #976A46",
"~. c #876C54",
"^. c #88735B",
"/. c #977659",
"(. c #90714E",
"). c #B16C46",
"_. c #B87547",
"`. c #AA7652",
"'. c #8A7765",
"]. c #987C66",
"[. c #806E60",
"{. c #A27B65",
"}. c #C47C4E",
"|. c #B9862E",
" X c #CA8F37",
".X c #D2A32D",
"XX c #BB8548",
"oX c #B78D51",
"OX c #968368",
"+X c #998676",
"@X c #A68569",
"#X c #B79678",
"$X c #B08D71",
"%X c #AE976E",
"&X c #D09150",
"*X c #DAAF4C",
"=X c #E7AE54",
"-X c #D8AB6B",
";X c #EBB66E",
":X c #D79B6E",
">X c #ECC75B",
",X c #FACE6E",
"<X c #FFEA70",
"1X c #AA9989",
"2X c #B69C87",
"3X c #B19F91",
"4X c #B8AA98",
"5X c #B0AC93",
"6X c #B5ACA6",
"7X c #B7B5A8",
"8X c #AAB4BC",
"9X c #B6B7B8",
"0X c #ACADAC",
"qX c #9DA1A2",
"wX c #C7AB94",
"eX c #C8B59C",
"rX c #D6B699",
"tX c #CCA98B",
"yX c #E7BD8A",
"uX c #C8B8A7",
"iX c #D7BCA8",
"pX c #C9BAB1",
"aX c #E1BCA7",
"sX c #B9C5AF",
"dX c #F5D290",
"fX c #FEE892",
"gX c #D8C4A9",
"hX c #C8C3B6",
"jX c #D8C6B5",
"kX c #DAD2BD",
"lX c #E5CAB7",
"zX c #F6D7BA",
"xX c #EDD1AF",
"cX c #FDE5A9",
"vX c #FDE7B8",
"bX c #FFF5B5",
"nX c #D5C795",
"mX c #B7B7C3",
"MX c #ACB8C2",
"NX c #C5B4CA",
"BX c #BDC0C5",
"VX c #D2CCC4",
"CX c #E9D8C8",
"ZX c #F6DAC7",
"AX c #E6DAD0",
"SX c #FDE7C8",
"DX c #FFF4C8",
"FX c #FAE8D6",
"GX c #F7EAD4",
"HX c #FFF9E8",
"JX c #FFFCF1",
/* pixels */
"6XuX6X0X0XmXmXMX8XNXhX5X2XnXdXcXcXfXdX,X=X XT.T.L.a.L.K.a.a.F.K.y.4.i.U.Y.K.L.L.&X>X,X,X>X<X<X<X<XfX<X5XsXVX9XmXhX7X7XsXsX7XNXNX",
"6X7X9X9XmX9XMX8X9XqX5XuXvXbXbXcX,XoXY.L. XT.g.L.4.a.K.y.8.a.I.F.I.y.r.K.F.q.8.p.8.d.*X;X,X>X>X>X<X>XfXbXgX5X9X7XsX7X7XpX7X6X0XNX",
"9X0X9XmXmX9X9X7X6XpXzXDXbXnXoXJ.M.Q 8.i.f.L.T. X&X:X}.T.I.}.}.K.F.I.P.y.a.D.P.a.K.K.f.d. X*X*X.X&X*X>XdXcXcXnXeX7XhXBX9X9XmX9X6X",
"mX8X0X8X9X7X6X7XgXzXvXnXoXJ.d.` u.v.i.p.8.p.K.}.:X}.c.6.c.6.4.H 6.)._.z.c.D.P.I.i.I._.K.9.d.d.d.Y.-X*X*X<XfXfXdXeXpXmXmX9XsX9X7X",
"8X8XMX9X7X6X7XrXGXcX-XP.V.J.f.u.P.H.j.d H y.I.}.}.I.j.z.A.c.6.y.H 5.7.7.7.5.c.}.}.N.r.P.XXY.d.f.Y.f. X=X.X*XfXbXzXiX6X9XmX0X0XsX",
"8XMXMX0X5XgXvXDXcX-XP.K.Y.Y.q.f n.S.A = H F._.).4.7.z.x.A.A.N.A.5.Z E H 5.c.D.`.c.A.).&XXXP.P.XXY.d.f.R.g.g.|.=XcXSXVX7X0XsXsX5X",
"MXMX0X5XgXzXcXdXXXd.p.8.i.y.q.0.B R T Z H Z w.F E $.R q D S.z.N.z.z.7.G G A.D.7.).).x.d l H.).P.P.U.s.4.s.s.c 4.&XdXvXsX5XsXsX0X",
"0XqX5XgXDXbX-Xu.8.i.y.8.8.r.e.G U N N B F D R $.U $.w o t $.$.l.v E Z 7.G R 7.7.N.N.N.r.k.V.V.y.4.8.y.a.s.a.f.p.i.|.,XbXxX5XsXsX",
"eX#XgXDXxX&Xd.8.9.c c q.0.F D q K w w t B X.C : Y * ^.].:.2 | C.Z d G F A.H.R A.o.z.A.V.r.S c l 4.7.7.W.D.c.y.a.L.9.|.,XxXvX4XpX",
"#XxXvXdXXXi.i.U.4.4.q.V.m.$.N 0 : i i 4 3 q 0 u e   +X1X*.L | y l.m.n.o.D j.A.Z.F h.k.e.t.Q x l Z G 7.7.7.7.6.4.f.d.9.d.&XvXlXwX",
"dXcXdXK.p.8.a.T.U.U.A.j.T N w w : 0 * O t y : 8 e J ' @ $ L K O.( _ j.M.h 1 n.k ) j.e.r.r.y.q.S v N B R 7.7.c.c.p.a.L.c d &XSXyX",
"fX;XK.Q 9.i.V.I.K.A.) s U I 9 : 0 2 4 t m X.I u e $   $ e 9 <.q X.~ +.!.G.M M 1 ( e.e.z.b.V.r.w.B T R R G 7.D.}.}.8.p.I.8.H -XcX",
",X|.p.y.y.F.D.A.7.7.v = v w 0 N I m C.H.D D ;.} P 9 @ P 9 9 *.E.C.~ M O.!.G.m ~ M ( _ e.e.r.r.r.$.$.$.B d h 5.N.N.).D.K.Y.d f.fX",
"&Xf.i.d.q.c.z.G R R B q 4 = b #.z.) A.).) D $.I + J P X 9 =.- $.&. .V ; &.(.m y ~ ~ ^ A Q t.V.V.h.X.G D S F F Z E ).).t.q.8.s.=X",
"|.d.9.u.7.5.B E - - = Y T m ! j.A.z.w.r.k.h.B w <.- $ $ X P <.T @.C.-.r ..Q.C.y m ~ ^ ^ e.m.V.B.u.u.V.B.A.m.z.7.W.d d V.i.9.9.g.",
"f.i.8.q.S.R v W.W.w w $.#.l.m.B.N.P.r.x b.F s S.R i o 2X$X* N (.:.;.{ [ r U (.#.6 g M ` M.H.H.m.B.H.XX_.B.w.7.z.7.c.m.u.u.g.8.s.",
"8.u.0.w.R = = *.iX^.$ e C.$.F ).P.V.q.y.V.V.N.m.k ! O tXxXrX:.5 { V C.v v B M n k ^ ~ M.;.u <./. .C.H.B.q.Q 0.e.P.`.oXH.J.d.i.8.",
"J.b.) M v = - 9 @ ] ' # r X.w.c.q.t.t.b.b.b.b.b.~ m ; $XrXDXgXQ.I C U R n d A.l r.^ 1 y ~ P 2.'.a ..+._ q.y.i.V.J.H.!.H.XX&X&XL.",
"B.u.x Z v P - @ . $ e # t ( G 6.S ) r.r.e.A M ^ X.t 8 $XwXlXGXjX~.; =.$.v n F D e.M.v.C.[ # X   , m _ e.i.P.Y.V.` +.v.G._.&X XK.",
"^ k A F R R Y + % # @ 8 @.( h S h.) ) D h 6 g ~ { p 8 ~.4X3XgXHXiXp ;.Y U T d o.e.u.+.! 2 * 9 L : X.M.B.P.I.V.0.k ^ _ _ ` y.q.p.",
"f d j D B Y P o 9 e $ , y D S 5.F B m m m b C O.i [ 9 e '.3XjXCXSX2X=.8 Y U l.) ) v.H.!.&.8 + - ; D N.A.V.V.r.c z ` _ ^ j l c 8.",
"f h h n v Y P : # 9 8 u b D Z Z B n n C C ! U { i u L e J '.pXpXGXCXOX+ K =.C.$._ j _ v.X.q * 4 < M e.r.t.r.b.r.j.+.) ^ / Q Q 8.",
"k j h v N I w K L , 8 [ { n d n C C C C T C m V Y 0 Y -.$ P ].pXGXAXjX2.*.Y { $.C.` v._ X.T 4 q A A 5./ 0.0.c.H.n.) ) ) e.w.0.8.",
"g M g b { N 8 w 8 0 p C 3 s D ) B M B C M b b X.t K u L ] P ,.uXkXJXGXZX+Xo =.! ( ^ b.` D l.B B k.w./ S z A h.Z.+.) ) j.l.w.k.V.",
"S 1 M m y ~ 5 K a I I b C n.z.S A ( ) D A M M M C b i i i P *.1.uXGXAXHXFX2X0 #._ &.u.` ) +.R h Z b.l h o.+.h.< n D m.m./ 5.k.k.",
"D 3 m m 5 5 > , ..V b C R D o.z.) M M _ m.m.l.) n M b q : 0 Y ,.1.kXAXGXHXxXi O.v.^ j ^ ) S D F S l l.) o.3 C `.Z.+.) e.k.k.k.S ",
"D b 3 t 5 W >.%.t t B $.o.o.o.j.M.v.j.b.b.( h h A ( T t < : i } ] OXjXHXFXZX| 2 n.` Q ` _ / D o.f f D < 4 r /.tX!.j.A 0.r.k.h.A ",
"B m 2 ~ W %.OXG.; b Z Z F S.m.l.+.+.j.j.j./ A k ( ) X.b q 0 t u -.' +XzXFXzX@.$.` &._ ` / _ ) A S e.& C.#XwXrX;.C.o.A 5.S S ) ) ",
"N C V :.%.%.>.~ 6 M Z d Z l.Z.S.n.C.M.+._ _ ~ 1 M M m b t t 0 > u L } E.lXaX& C k ` _ Q j z ^ j e.M.C.ZXzXwX+X:.#.( / r.5.x ) ) ",
"T $.{ %.>.%.W 5 ! M D 5.G n n M ; ~ O.( 7 1 1 1 g 6 3 t p u 0 r # u u O /.tXT < ` ^ Q ` Q h ^ n.H._ `.SXlXuX-.*.C.o.r.r.r.r.j.F ",
"=.$.[ ..>.%.W W m D j.x.5.n n o.$X%X:X#X/.%.y y V 6 r p i u i *.p * 0 0 Y @X$Xm.M.` ` u.u.` v.H.^ +.zXSXuX1X,.*.@.#.k.r.t.b.k.S ",
"R R {  .(.>.# ~ 1 O.l.M v S.{.#X/.-.%.@XtX:X(.&.{ y V [ K u } ~.(.> , i 4 b Z.!.M.B.J.u.b.H.H.v.O.!.zXgX1X1.2.:.V +.N.r.x 0.k.) ",
"( D b H.&.< O.V |  .I *.].+X2.3.2.1XuXlXZXgX{.V ;.{ m I I u p *.1.L # r y < 1 w.e.0.t.k.0.H.A 6 + wXZX^.,.K <.~.C O.) / / / e.B.",
"j.j.h n.#.3 { 2 0 u '.1X2.,.+X4XVXAXAXCXaX~.r { { m b C V 0 0 K 2.' # 5 y s h w.e.l 0.B.e.A Z.;.J hXCXwX1.[ Q.C.$.+.( A e.e.e.j.",
") b.f A ` b C > u 1.~.1.'.9XVXAXAXVXCX1X8 O [ @.b b m t 2 0 0 e ,.J # e ~ m A ) e.H e.N.e.1 Z.m ].jXuX4X~.<.G.3 ( j.n.n.m.l.) _ ",
"A +.g n O.m m i :./.].+XpXCXCXAXCXiX^.+ * @.$.3 M C b 3 2 i I K -.' e e r t h S k.0.w.z A A ( ; 7XpX1X1.:.~.;.; h j.m.l.v.$.#.G.",
"w.j.h M +.b { :.]./.2XiXjXZXGXuX4X9 + =. .U @.M B m b 2 N @.=.} 1.] e 8 0 t M ( k.b.) 1 A n.< @.iXVX3XJ } Q.{ M ^ ) D g m { E./.",
"n.) M C X.C C.@X#XwXiXiXlXCX4X<.  Y =.9 2 O.$.M 6 g 3 b { ;. .K ,.' e L  .@.$.) ) l.N.z.n.l.o @XCXhX+Xe Q.(.) e.e.e.n g V I Y Y ",
") A ( D N U C./.{.rXzXZXgX<.@ , K 4 q | C b B M g 1 3 b { | I u e # , ' -.$.! o.F j.!.A.Z.n = tXAX3X] -./.n.` j.e.l.o.C I w + @ ",
"D C l.( 3 N I i E.{.2X].u + 8 i ; t < < X.&.) ) b s 3 3 V i t u e $ 9 u ; * 3 C.o.o.m.M A & S.yXgX2.. ~.(.; ^ B./ b.l.V = + @ J ",
"m o.C C $.K : 0 : O o + > i t > 3 6 < 1 $.n.+._ g 1 b $.@.y t [ 8 e L u r q b B X.D #.o.D o tXxX2X. ^.$X7 n.Z.B.z z n t 0 u J P ",
"M l.D q q 4 : 0 u i K K I m V ! 1 g 1 g l.A.#.n h m { n.;.b t r e e > , : q C X.o.b D F R & :XrX/.OX/.p { H.k S z z h b V K P J ",
"n B 3 2 U | i O - u I I t 4 1 g 3 b M n b o.#.M ) ! X.X.C t b V 0 8 > 0 i V X.$.#.s b h h 1 !.!.:./...; X._ A z ) ^ M ! | | ' L ",
"T n v 3 U =.I + 8 w t m C M h g m s D C g M X.m $.X.! b b b C $.t r r y C T C B R n n n d s h g ! 2 & C A g +.A ) o.) { O. .[ I ",
"#.$.U = * : I : K i N C X.+.) S ( 6 m $.C C V 3 b m { ! C C X.X.{ p 2 3 t B T D n Z #.F G j.M n g D D g ( M 1 h ( ( ~ ~ ! ~ ~ X.",
"R X.b * + * : 9 i I I C h h A / C b m V 3 3 { #.b b b b b b M X.! V b m D X.o.X.n ) m.z.j.m.h.j.S w.k.Z A D 4 ! b m M ~ m ~ ~ ` ",
"C R q & w w : : i I C B h k z ) M { t & 3 #.C.Q.{ b 3 g s 1 n #.M ! X.O.;.l.o.D o.S.z.w.h.w.j.w.6.d w.z.A n C O.V V ~ k ~ k j k ",
"#.Z.T 3 w 4 : Y i r t 6 b M A A U X.; * Q.#X].| [ b b O.X.b M #.O.{ { X.X.X.o.) Z.A.j.h e.S r.x l x w.b.w.n ( m @.@.~ ~ ^ ^ f 1 ",
"$.o.D n s v n C p 7 7 y 5 6 ~ M X.r * $XiX3X^.*.P 2 C #.+.n h.B Y = o = b B +.~ ^ ` u.Q c 8.8.l l ` u.q.x x A m ;.*.} } y ~ Q Q ",
"F F G Z Z n M C > 7 >.%.W  .y b { U  .eXjX3X'.2.Y 0 C X.o.Z l.T Y /.{.{.| X < O.&.&.v.t.Q Q u.8.u._ q.Q 8.x D B =.*.*.' ~ O.u.u.",
"D G Z Z D B C C 6 y (.%.5  .y { q i E.jXCX4X'.'.-.r { D ) Z k.$.- P FXFXZXaX> # 7 y O.m.` x t.b.u._ Q Q x 0./ M =.} K } ~ O.u.u.",
"D M n n G D C V 5 5 %.5 # > 7 { y 2 Q.gXjXeX'.2.:.t X.A G Z ) D S.X @XFXSXHXzX2X<.> O 2 ( j.h.Z ) ` / Q 0.0.) A @.K K I ~ ` _ Q ",
"X.B v s n n m V # W W %.~ , p [ ;.i /.lXgX7X2.1.<.2 ( M / ^ 5.A 2 ' ' ~.jXHXGXHXkX2X'.<.R R S.S.$._ e.w.0.S ` ) V 6 t V { +.k.0.",
"C C b s v b V V W ' W (.>.5 =...@.r $XkXgX7X2.2.:.; ( j / 0.) ^ X.2 G.-.] 4XVXAXJXJXHXZX2X/.W.U $.$.o.F x l z ` M 6 m M C ( w.A ",
"C C b b v v b W W W e -.' , [ [ p O @XkXeX4X'.OX1.5 ` j A e./ / k j { #X].' ].9XVXAXFXFXSXlX{., B B T o.) A z ^ ^ j M ( Z Z Z d ",
"m m C B b b V V 5 e %.-.W r t I ~ O +XxXuXhX2.OX(.y O.k z e.z z Q k ^ ~ {.3X2.3.1XuXpXpXjXFXzX#Xv B R Z.H.m.` ^ ^ ^ / ) G F 5.G ",
"X.O.$.B s 3 y V 5 > 5 5 e 5 0 t 4 o #XjXkX4X1.'.Q.7 &.1 v./ A z l q.6.= < C.OX].,.1.2.5XeXeXnXzX!.= =.$.n.&.+.M.u.` r.e.Z G 5.5.",
"#.O.o.G m B B m W 7 5 5 > ; 4 q ; i wXjXjX2X,.'.~.5 C.~ ` / +./ y.4.H S S 3 Y ~.%XOX'.^.OXOX%X5X{.o U N N 6 #.C v./ x w.r.N.x.5.",
"S.j.X.D R x.X.C @.~ a y N 2 3 b C $.#XiXjX4X,.'.(.O ..( ! M &.S 4.6.6.x Z ) $.~ G.1.1.(.(.G.OX|.{.E =.T <.I ;.C ` z l 4.c.c.5.F ",
"Z.n.) F h.z.o.X.! m y ! { B n B U = =.rXjX4X,.^.1.# r ! #.! ! M H H c 5.j.j.o.X.~ ~ ` O.%.>.>.G.!.R | 9 E.| w T M S c 4.y.x H 5.",
"A.z.) F 7.7.x.j.M b b M C Z G D v * =.lXjX4X2.2.' ' %.r  .O.I ! m m g ~ S S A z Q ^ j 6 W ` &.&.$.;.0 X $ P $ Y D x.y.y.y.x l b.",
"N.z.5.5.5.5.w.x.) O.( M n D 7.h.G = $.aXZX6X+X,.  :.:., 2 ..} K ' [ W 7 6 ~ / f f c / _ ` ` ~ 6 C ~ 0 ,   J P P D w.t.6.8.4.q.y.",
"N.x.5.5.6.6.5.) j.M.C.o.D 5.x.5.G s = {.lX].' $   L K O # u L ' ] e W ' ..k k r.x 4.x A Q ` ^ ~ 6 < 8 J @ $ P w T F 8.4.8.q.V.J.",
"c.t.6.6.7.5.S S G Z.H.l.w.x.7.Z G R - W.pX] @ ] $ X X , > 9 e ' % ] ] e 5 O.e.d c c c Q Q Q j ^ ~ ~ 8 + J $ P Y =.N.D.i.4.i._.U."
};
