/* XPM */
static char *f1bfd36d83bf45ad8b645633945aeba1bMwKhYihGzZt5Eah[] = {
/* columns rows colors chars-per-pixel */
"64 64 255 2 ",
"   c #000000",
".  c #080903",
"X  c #050E0B",
"o  c #170302",
"O  c #181706",
"+  c #1B1B16",
"@  c #270402",
"#  c #390402",
"$  c #2A1904",
"%  c #371509",
"&  c #231C16",
"*  c #331416",
"=  c #153009",
"-  c #1A2817",
";  c #2B2A03",
":  c #362702",
">  c #26251A",
",  c #2D2A1D",
"<  c #362A17",
"1  c #332D1D",
"2  c #273717",
"3  c #373719",
"4  c #121722",
"5  c #232424",
"6  c #2A2926",
"7  c #2C2C2B",
"8  c #312D22",
"9  c #263424",
"0  c #383428",
"q  c #2E2F32",
"w  c #333334",
"e  c #393737",
"r  c #35363A",
"t  c #3B3A3C",
"y  c #470401",
"u  c #580300",
"i  c #491607",
"p  c #581606",
"a  c #461C16",
"s  c #571B15",
"d  c #6D0204",
"f  c #68160B",
"g  c #77180A",
"h  c #6C1C13",
"j  c #771C13",
"k  c #542E0F",
"l  c #47251A",
"z  c #57281A",
"x  c #473419",
"c  c #692E0E",
"v  c #68271A",
"b  c #782619",
"n  c #4F1726",
"m  c #572A24",
"M  c #443A2A",
"N  c #533328",
"B  c #463D35",
"V  c #683528",
"C  c #71302B",
"Z  c #1A4313",
"A  c #394815",
"S  c #384B29",
"D  c #4E5111",
"F  c #6B4E13",
"G  c #56670C",
"H  c #6E7714",
"J  c #484927",
"K  c #4F572A",
"L  c #494237",
"P  c #53483C",
"I  c #6E502F",
"U  c #566526",
"Y  c #586C31",
"T  c #667629",
"R  c #6C7037",
"E  c #3C3D42",
"W  c #33364F",
"Q  c #34344C",
"!  c #473A44",
"~  c #3F4049",
"^  c #434243",
"/  c #44444B",
"(  c #4A474A",
")  c #564C46",
"_  c #595349",
"`  c #4A4A53",
"'  c #4F5054",
"]  c #59555A",
"[  c #6F534B",
"{  c #665A56",
"}  c #716F4F",
"|  c #414263",
" . c #5B5965",
".. c #645E66",
"X. c #666369",
"o. c #746E70",
"O. c #797377",
"+. c #8C180D",
"@. c #8E2D17",
"#. c #85261B",
"$. c #883729",
"%. c #8B352E",
"&. c #943928",
"*. c #AA3F26",
"=. c #94660F",
"-. c #8D4E34",
";. c #AC4A33",
":. c #8E6F37",
">. c #8F3741",
",. c #904B4B",
"<. c #AF4F4B",
"1. c #976848",
"2. c #90704D",
"3. c #A9754F",
"4. c #8B4764",
"5. c #87796C",
"6. c #91786B",
"7. c #867973",
"8. c #8A7D74",
"9. c #857879",
"0. c #8A7E7B",
"q. c #AA736C",
"w. c #C45C5E",
"e. c #6D8818",
"r. c #788629",
"t. c #748B36",
"y. c #7C8C4C",
"u. c #978F24",
"i. c #8B9435",
"p. c #93A538",
"a. c #A8B439",
"s. c #CA9833",
"d. c #91914E",
"f. c #AE9150",
"g. c #96A54F",
"h. c #ACAD55",
"j. c #8B8666",
"k. c #989767",
"l. c #96906E",
"z. c #8D8375",
"x. c #8D827C",
"c. c #948273",
"v. c #96887A",
"b. c #A8906F",
"n. c #A49976",
"m. c #98A76B",
"M. c #B0AF6F",
"N. c #A8B569",
"B. c #A8A977",
"V. c #D0AA52",
"C. c #C39864",
"Z. c #CEB271",
"A. c #B9D254",
"S. c #B7CD6C",
"D. c #BFE075",
"F. c #F7CA4D",
"G. c #EFCA57",
"H. c #F8D559",
"J. c #C3E05D",
"K. c #D0CD74",
"L. c #F7DA66",
"P. c #EDD371",
"I. c #CBE67A",
"U. c #FAE26A",
"Y. c #FCE375",
"T. c #6E7382",
"R. c #777885",
"E. c #887B83",
"W. c #7C8590",
"Q. c #8D8383",
"!. c #8A858A",
"~. c #918684",
"^. c #948A84",
"/. c #9A8E84",
"(. c #958A8A",
"). c #958B8B",
"_. c #9B9385",
"`. c #9A978A",
"'. c #9C948B",
"]. c #888797",
"[. c #958E91",
"{. c #9A8E92",
"}. c #9B9294",
"|. c #9C9699",
" X c #AC8F8B",
".X c #A69688",
"XX c #A39C8D",
"oX c #A49A99",
"OX c #B1AE8B",
"+X c #A9A294",
"@X c #8994A2",
"#X c #9A99A4",
"$X c #A49CA2",
"%X c #AB9CA2",
"&X c #B09FA5",
"*X c #98AAA4",
"=X c #ABA3A5",
"-X c #A9A5A9",
";X c #ACA6AB",
":X c #B2A9AC",
">X c #B8B6A6",
",X c #AAA8B4",
"<X c #B3AEB3",
"1X c #B8A8B4",
"2X c #AAB8B5",
"3X c #B9B6BA",
"4X c #CBB78F",
"5X c #DF9AA2",
"6X c #CCB3AB",
"7X c #C3BCB9",
"8X c #B9C58D",
"9X c #BFE18B",
"0X c #BCC5B4",
"qX c #CEC98E",
"wX c #CAD897",
"eX c #E4D48E",
"rX c #EFDF97",
"tX c #CBE791",
"yX c #CDD4AE",
"uX c #C7C6B6",
"iX c #D2E5A9",
"pX c #EEE9AF",
"aX c #A8B2C3",
"sX c #BCBBC3",
"dX c #B9BBC7",
"fX c #C2BEC4",
"gX c #BAC9D2",
"hX c #BECBE8",
"jX c #C4C3C5",
"kX c #C4C3CB",
"lX c #CBC8C9",
"zX c #CBCBCD",
"xX c #D1D3C8",
"cX c #C7C9D6",
"vX c #CDCCD3",
"bX c #D1CFD5",
"nX c #CCD5D9",
"mX c #D4D3D5",
"MX c #D8D7DA",
"NX c #E8D4D4",
"BX c #D7E1D2",
"VX c #F2EFCD",
"CX c #C9D9E6",
"ZX c #D5D8E5",
"AX c #CDD3F3",
"SX c #E1DFE3",
"DX c #D8E6E8",
"FX c #D3E9F2",
"GX c #E8F4ED",
"HX c #FAFDEC",
"JX c #E5E9F0",
"KX c #E7F8F9",
"LX c #ECFEFE",
"PX c #F7FDF9",
"IX c #F3FEFE",
/* pixels */
"+ 8 M B B B x ..FXJXMXbXbXfXMXZXmXMXMXSXmXMXMXMXmX7X_ = S A 2 A fXxXMXlX>Xn.b.B.t.T R 9 S _ 0 0 Z.Y.1.! c  X<X<X>X1X>X=X_.} R R ",
"& M B 0 8 8 & cXIXbXZXbXbXbXvXNXMXMXMXSXSXMXMXMXkXo.Z K A 2 = _ lXbX6XXXOXwX8XOXR T x A S S X i.U.Y.V.* * I oX:X:X:XXX5.D G T r.",
"8 B B 0 6   ].PXZXbXvXZXbXbXbXbXSXMXMXmXSX>Xk.>XoX; A Z ; , Z { 1X Xd.n.n.2.2.j.J Z A U K X I G.Y.Y.G.I * s 6.%X=XXX} D U U T r.",
"0 P P B M ` AXJXvXvXbXvXMXMXMXMXxXSXMXSX7Xi.p.g.P Z 3 %.w.,.O ] 5.I 1.,.b d u k 2 J U U = x V.Y.U.P.Y.f.a m [ {.O.P J A D R :.i.",
"B ) P [ x ,XIXvXZXZXbXmXfXNXZXMXSXmXBXMXXXa.A.h.A x <.w.<.-.,.B N p %.,.%.h s @ 3 U U 3 $ :.Z.P.P.Y.Y.f.c m N ) - S U A U g.k..X",
"B P _ P { DXJXvXvXMXMXxXMXbXNXMXuXxXbXjX} a.s.N.d.a -.-.%.%.4.,.y u >.<.%.%.i @ A U J = F nX3XM.Z.eXeXf.v m z 3 S Y K J U F q. X",
"B P P x #XLXZXcXvXvXmXMXmXMXmXuXyXrXwX8XN.S.h.M.qX} i ,.,.,.,.,.C i d #.-.$.s & 2 U 3 ; 0XIXLXZXyXqX+XI V z l N ^ K k v b >.@.b.",
"M B P N cXJXcXmXzXbXbXmXMXmXxX8XtXtXS.8XwX8XN.N.OXk.F =.-.I >.4.n y s j #.#.v > A J . l.LXIXPXPXLXKXAX{ c l a V L % f g -.;.g q.",
"B L l o.JXZXkXvXmXmXmXmXbXMXbX7XB.M.M.M.M.k.H f.B.>XXX{ J : # o * @ i u C C @ - < = D BXPXPXPXPXPXIXCX-.V a l l % p h g @.&.#.v.",
"M B : ,XKXbXvXvXlXbXMXmXbXxXMXlX&Xl.k.d.F c 7.gXDXFXDXZXhXaXE.w # m m u 3.n.2.J A k >XPXPXPXPXPXIXLXCXI V l m s i p h j @.&.#.b.",
"M M < cXSXfXvXvXbXzXbXMXmXmXuX_.B.wXiXB.%.3XFXMXpXrXrXrXiXSXKXCX|.n y I f.C.k.} S G yXPXIXPXIXLXIXIX2Xp V a z y y u f j #.@.@..X",
"M : ] JXZXfXkXkXbXmXbXzXmXmX>XH d.tXwXn.nXLXpXY.Y.Y.Y.Y.L.G.nXKXLXcXP c b.M.d.y.Y T e.M.VXGXHXGXSX3X_ i V l a V I V d C C d -.d.",
"0 $ W.JXcXzXlXzXzXzXmXmXmXOXp.r.r.tXwXk. XyXL.L.U.L.H.L.L.L.qXFXKXLXFXI b.M.:.y.t.t.t.G Z t.y._ 5.(._ i V l @ d.h.T F b d -.d.H ",
"M @ -XZXsXkXzXzXvXzXzXxXMX>Xi.U r.tXwXb.u +XG.H.U.H.H.H.U.L.K.FXKXKXLXcXj.d.D y.t.y.t.e.U t.p.e.B (.{ % m < @ R p.r.u.a.-.M.M./.",
"0 o dXZX3XuXkXkXzXvXbXjXjX7Xj.G m.iXiXn.y [ Z.F.F.F.H.H.L.U.4XFXLXLXLXLX:XD B.0Xy.m.t.p.t.A.9XD.J E.}.P z l o I d.u.h.I.:.h.OX+X",
"< 8 cXZXgXjXkXjXjXzXbXzXlX7X8.R wXiXwXk.# y 2.V.V.V.H.U.Y.G.3XKXLXLXKXLXvXD 0XDX*Xy.t.t.p.A.9Xg.M $ E.5.v N   } B.N.J.I.I $.1.E.",
"$ L ZXcX3XfXjXlXzXzXjXjXlX3X2.d.wXwXwXR # % * I =.=.s.F.L.qXDXLXLXIXLXLXGX_ gXFXY G Y r.t.g.r.R P D } 7.v m   I m.h.h.p.J u g 6.",
"$ ] ZXcX3XfX3XsXlXzXvXkXuXv.k.8XwXwXM.k l # O 0XxXOXf.=.=.j.xXIXLXLXLXIXKX} gX0Xt.y.t.U U J -   & $ { 5.[ !   I i.T I R c -.V n ",
"$ O.DXcX3X3XfXjXjXjXlXzX0X6.M.iXwXK.m.j.k % OX6X+X_.l.7Xn.2.l.qXBXGXLXIXDXP OXt.y.K K M s O o .     { 9.[ C   I 1.-.b x g b C s ",
"; E.ZXdXjXsX3XjXjXlXjXuX<Xj.d.qXwXM.b.b.2.xXyX        _.qXC.f.6.n.4XBXLXBXF j.T G K F v m *   5 W    .E.[ [ o -.;.$.C s g g g b ",
"$ !.ZXdX3X3X3X3XjXjXjXjX1Xn.b.M.M.i.d.j.qXVXVX4Xc n x # I -.2.:.[ d.B.JXuX:..Xz.y.k C m m *   5  .   .,X[ [ @ $.&.-.b.4.d h g b ",
"$ E.ZXsX3X3X3X3X3XgXjXjX:XOX>XOXB.d.H T D 4XVXpX4X:.V V % # # x N N ,.+Xb..Xb.fXhXR.u C z n 5 4     ,X1X4.n a -.%.b ,.4.u h g #.",
"$ !.ZXdX3X3X3X3XsXuX7X3X:X6X4X6X4Xb.U A X I eXeXqXf.f.2.:.:.3.I V l @ y 6.^.-.+XhXAXE.y # #   o ! aXAX%X>.s s $.-.u V C u h j #.",
": Q.ZXdX<X3XsX0X3XsXjX7X.XuXuX7XuX6X[ : J @ 1.4XZ.f.d.i.d.d.h.b.-.V l # { 0.=.-. XAXAXaXE.E.E.dXcXgXfXq.p m m b #.@.&.g f h j +.",
": O.ZXsX<X<X<X<X3X3XsX7XE.q.6X6X5Xq.u v V I i 3.f.p.f.h.M.f.f.f.:.k a * I 2.5.:.f.+XAXAXAXCXZXFXCXX.y # % V I p @.*.;.;.+.f g +.",
": o.nXdX,X<X<X3X3X3X3X3X&X,.;.<.@.+.%.b h #.z # 2.h.M.h.h.h.a.Z.f.p * M -.c j.1.3.:.} R.@X[.).X._ (.dX<X{   l b *.;.<.<.@.g #.#.",
": { nXfX<X<X3X2X3XsXsX7XfX&X4.C m V ,.b #.j j y % d.h.V.a.h.h.Z.2.#   I 1.:.1.s.f.f.5.        _.xXLXIXIXCXQ # $.@.;.<.<.;.g g +.",
"x ( cXdX;X;X:X<X<X<X<X1X1X1X|. X[ h j f #.j j h i # 1.Z.f.h.h.f.l %   I 1.3.3.C.Z.Z.5.    L zXKXPXLXIXLXIXCXC g %.&.;.;.;.&.#.<.",
"x 3 3XgX-X;X;X,X<X<X3X1X3X:X&X1XC s v h &.#.#.j f z # -.h.f.f.:.* <   I 3.1.C.P.qXK.O.  ; nXPXPXGXHXIXIXLXIXdXu c g +.*.;.;.q.6X",
"M $ -XcX<X,X-X-X<X<X1X3XfX:XsX1XV n v j %.&.#.j h s V N 3.C.f.V * % l v 3.3.4XZ.P.eXk.  +XPXKXLXHXHXPXIXLXLXIX>XM.M.Z.Z.4X4X.XlX",
"M @ !.nX,X=X$X=X=X;X:X;X1X&X1X%XV y s $.<.%.#.h a k -.b.5.2.I @ % % V k 3.4XZ.Z.rXeXk.  xXPXHXPXHXHXPXLXKXnXKXFXyXiXiXiXVXyX4XyX",
"x $ X.kX<X=X#X=X=X-X:X:X3X:XsX{.[ ,.u &.%.j s s l V 1.1.z # % % & # F c 3.b.w.G.K.qX2.$ BXPXGXHXLXLXHXLX0XZ.qXKXyXwXiXiXwXwXn.4X",
"x < 0 dXdX-X$X%X=X;X:X:X1X:X%Xb.q.OX-.&.:.I z a % x ,.1.N % * @ @ a x :.1.Z.Z.Z.eXK.4X$ BXPXPXGXGXnX0X0X4XZ.P.VXgXm.S.OXm.n.oX+X",
"0 0 o #XkX-X$XoXoX$X%X&X:X:X6..X5X5Xb.I i.2.x % % a z m a y i + % z   2.-.4XrXZ.rXVXHX6.uXPXGXGX0XM.K.G.G.Z.U.pXDXR p.S.^.'.+X+X",
"3 0 o o.cX$X#XoX$X$X&X=X1X<X.X6.5X5X5Xd.p.:.k u f f d h h b h   # m   I 3.Z.eXeXpXHXPXNX0XGXGXnXB.P.L.H.H.L.Y.rXDXW.e.S.8X+X+X+X",
"< < < 8 dXdX$X|.{.oXoX:X<X<XoX2. XNXNXOXi.:.f g b #.%.%.b %.h o.[ @ : J 3.4XrXVXVXPXPXpXOXGXGX0XZ.H.F.F.F.U.Y.Y.VX*Xe.p.M.XXXX+X",
"1 1 M   ].kX-X$X%X%X$X%X-X=X:XXX2.&XNX7Xd.:.-.$.$.$.#.$.C C v N 6.5.} R :.P.pXHXHXHXHXyX8XFXGXgXZ.H.H.F.F.F.H.U.pXgXG l.XX+XXX+X",
"1 1 3 $ L gX<X|.{.{.{.$X-X:X:X:X X6.v.[ D d.I b v f h v C C s < J 6.OXXXb.Z.K.pXHXxXk.S.8XyXKXCX4XL.L.G.F.F.L.L.pXCX5.`.XXXXXXXX",
"< 1 0 M   |.dX$X{.{.$X&X;X=X=X=X=XoX8.P < J 3 < & X & s V C < - 5..X>XM.n.B.XXB.8Xm.G g.wX8XCXFXyXP.L.H.F.F.L.U.pXCX_.`.XX`.XXXX",
", 1 3 0 < ` fX1X%X#X|.$X$X=X=X;X=XoX(.[ + . 9 > > > + $ m m -   d.>X0XS.} { l.k.B.N.i.i.8X9Xm.DXDXyXK.G.F.F.H.H.pXgX_ v.`.XX_.n.",
", 1 0 1 0 $ [.gX$X[.{.$X,X&X-X;X%X|.0.P 8 9 - - 4 - - = - - X K l.8X9XS.& + 0 R k.N.h.d.g.wXOX`.CXFXFX0XqXZ.K.G.GXgXG R } z.XX`.",
"1 1 < , 1 M P 1X3X#X{.{.#X$X$XoX}.oX{._ X 2 9 9 - 4 9 9 - X 2 k.OX0XiXy.  O     R N.h.N.g.d.N.h.y.*XFXKXFXFXnXDXKX2Xg.t.u.r.j.`.",
"0 1 , > > B x o.cX&X|.}.|.{.{.|.|.oX#XE.] S = = - 9 9 2 3 O > k.8XiXiX}   | Q   3 g.N.S.g.h.h.tXD.t.' W.aXgXnXDXFX`.y.y.r.g.y.l.",
"0 < , , 1 M P M @XfX$X}.(.{.{.}.oX|.[.}.|.W.X.~ 9 Z = P P 9 ; y.8X0XiX'   | W   > t.N.N.h.h.A.iXtXJ.K   = _ o.7.v.`._.l.l.l.v.v.",
"8 1 , 8 8 L ) ) $ ,XsX|.[.).(.{.{.).|.|.[.|.#X[.!.O.X.x.} 3 U U m.m.g.} S 6 X 8 q T N.N.g.i.J.S.9XJ.t.4 O.x.x.`._..X'.}.`._._._.",
"1 , 1 8 0 M 0 0 M q 3X2X{.{.{.~.~.|.{.!.}.|.[.[.#X}.}.}.O.S A U Y e.t.S.g.T J _ _ 3 d.N.g.i.J.tXiXD.t.4 7.(._.'.'._./..X'..X_._.",
", , 8 8 0 P 0 0 L O ` dX<X|.Q.~.[.Q.Q.[.[.[.[.|.[.).[.[.!.0.{ J D U Y t.g.T Y } } P J d.2.p.I.tXtXI.t.} ^._.oX'.XX_././..X X/.c.",
", 8 1 8 M { { _ e e   X.dX-X[.[.Q.E.(.[.!.).[.[.(.[.}.}.).oX).v.y.X.S A t.t.T e.d.l.} K 3 u.J.iXD.A.m.|._.oXXXXX(.'.'./.v./.v.v.",
", 6 , , B ) L _ ^ 8 0   X.dX,X[.E.!.).E.~.(.{.!.(.).{.!.'.|.`.*X`.`.z.} A T r.Y j._.l.j._ F a.J.J.h.m.|.oXXXXX'.}./..X/.v.c.v.c.",
"8 8 8 , M { B ] ( w 5 w   o.dX,X[.).E.E.E.).!.Q.^.).(.~.|.[.`.|.`.|.^.XXz.} y._.`.'.^.`.z.5.} d.m.v.`.`.oX`.'./././.v.v.v.c.6.c.",
", 8 8 8 L ) P ] ) e 6 0 e    .gX3X[.Q.E.~.Q.9.Q.Q.).0.(.`.).`.|.`.|.^.|.`.`.XX'.XXoX_.'._._._.^._.`.n.`.'.`./.v.v._.v.6.c.c.c.8.",
"> , , 8 0 _ ] ! e 8 + q 7 5   ^ 3XsX#X).).9.E.9.~.Q.E.'.).).`.`.`.`._.|._.}.oX`.'.`._.'.`.^._.'._.`.`._._./._.v.v.c.c.6.6.c.c..X",
"- & 8 > _ 9.O.e 7 6 6 5 0 6 w > 9 #XkX,X!.Q.0.E.!.0.Q.).Q.^.`.).[.).^.`.^.'.'.^._.`./._..X~._.`.v.`._./.^.v.v.v.c.c.6.6.8.8.oXmX",
"+ & > > E.E.{ t 6 7 ! w ( w 6 w 8   R.dXsX|.Q.[.0.0.~.(.Q.^.).~.).x.^.).x.^.(.^.^.^.(.~./.^.~._._.^.^.^.x.x.c.c.8.8.c.8.XXfXZXaX",
"O & > 0 O.{ r E w 7 q / ( 6 6 0 e w O / #XdX<X[.9.E.~.0.Q.^.~.x.~.9.x.x.0.x.^.x.x.x.^.z.^.^.8.^.^.x.x.x.c.8.c.c.6.c.{.7XcXhXW.7 ",
"O - > B _ ] ( r r w - t w w > q w w L q    .,XdX:X|.Q.9.0.Q.x.~.x.z.x.9.8.8.x.8.8.8.~.7.8.^.7.x.^.x.z.x.z.8.8.x.oXfXAXfX@X .R.E.",
"O + & B ( { ' e q 5 w t w ` ^ 7 t ^ 7 t w     o.,XgX<X|.~.~.7.0.x.9.0.7.7.7.8.7.5.7.0.5.7.0.7.7.x.x.0.0.x.{.=XzXZXdXR.` / R.].E.",
"O > O ( _ ' / / w 6 r E w / ^ 5 ( ( 7 + 5 5 6 O    .#XdXsX,X}./.x.O.9.7.7.7.8.7.7.7.8.7.6.0.0.0.^./.{.-XjXnXcXaXT.4 ( R.R.X.T.o.",
"O > $ ' (  .] ^ ^ E r w E t 7 w ` ^ 5 5 7 + + q 5   > / R.,XaXgX3X,X$X[.(.(.(.0.0.x.^.~.).oXoX<XfXvXAXnXgX@X` 7 7 ` o...X.]  .#X",
"O + > ( ] X.] ( E E / / / E e e E r 6 w - 6 w t q t E +     ` R.#X2XdXcXgXkXfXsXfXzXcXcXnXZXcXcXdX#XR.`  .r ( ]  .] ..]. . .E.E.",
"& O w ] X.] / / q w / ' ~ ! / ^ q 7 q r 5 5 7 7 w q 6 q 7 q 6 O 4 5 ~ X.T.R.R.].@X@X@XW.R.R.T. .r 5 r `  .] '  .T.! ] R.E.R.E.E.",
"+ O ) X.E r / ( / `  . .( ' E q r 7 + 4 6 7 7 q w q 9 r ~ / q E r r 7 5 +               O r ....` ` / / ..' /  .] e !  .T. .R.@X",
"+   ] X./ ! ` ` / ` ` E ] ` ( ] E 5 + 5 Q t 7 E 7 6 q t ` ' r r 5 ~ r E ~ 5 5 q r 7 w r ` ] ` ]  .` ' ' ] E 7 ] ! w Q X.E.E.R.E.",
"+ O B o.' E r E / ~ t ^ E t Q ' r 5 5 7 r t q E q t E E ` / ` 7 q q q Q ~ 5 5 5 5 5 r E E / /  .` / ! ` ` ! e ` ` r Q T.@X#XT.T."
};
