/* XPM */
static char *_e4e4de349f64a05d392d1df4c78d72clNuTlnQLrggo3EzQ[] = {
/* columns rows colors chars-per-pixel */
"64 64 256 2 ",
"   c #030101",
".  c #0B0301",
"X  c #060508",
"o  c #160A05",
"O  c #191308",
"+  c #1B1614",
"@  c #0A0E15",
"#  c #261B09",
"$  c #251C16",
"%  c #351B17",
"&  c #1A230C",
"*  c #2C241B",
"=  c #2B2618",
"-  c #32251B",
";  c #322A1E",
":  c #362716",
">  c #332D13",
",  c #2B1C25",
"<  c #2C2724",
"1  c #332C22",
"2  c #352B27",
"3  c #3C332B",
"4  c #393426",
"5  c #363333",
"6  c #121C29",
"7  c #6A1505",
"8  c #50310C",
"9  c #743107",
"0  c #44382A",
"q  c #453C35",
"w  c #533C2D",
"e  c #56241B",
"r  c #77470C",
"t  c #5A6815",
"y  c #4B4438",
"u  c #53473B",
"i  c #53512F",
"p  c #705032",
"a  c #67762A",
"s  c #6B6D35",
"d  c #5A601D",
"f  c #2B3748",
"g  c #4B4544",
"h  c #544A47",
"j  c #595349",
"k  c #5B5656",
"l  c #524B52",
"z  c #655747",
"x  c #665C56",
"c  c #75594C",
"v  c #767B46",
"b  c #696559",
"n  c #756759",
"m  c #767956",
"M  c #6F684D",
"N  c #6B5B69",
"B  c #6A6565",
"V  c #756C64",
"C  c #746A67",
"Z  c #79746B",
"A  c #7C7775",
"S  c #726D74",
"D  c #596366",
"F  c #453F43",
"G  c #8C3807",
"H  c #9C2905",
"J  c #864806",
"K  c #964B04",
"L  c #8C5505",
"P  c #985707",
"I  c #895819",
"U  c #965A15",
"Y  c #A74A03",
"T  c #A75806",
"R  c #B85B05",
"E  c #A65B12",
"W  c #B44F0D",
"Q  c #9C6314",
"!  c #98660D",
"~  c #A86709",
"^  c #B76706",
"/  c #BC7407",
"(  c #A86717",
")  c #B76B17",
"_  c #B97517",
"`  c #AC7216",
"'  c #8B5A35",
"]  c #8E6D2E",
"[  c #AB6A23",
"{  c #B76925",
"}  c #A97626",
"|  c #B77526",
" . c #B47235",
".. c #AF5F24",
"X. c #C75605",
"o. c #C66905",
"O. c #C77706",
"+. c #D57706",
"@. c #C46916",
"#. c #C67818",
"$. c #D57818",
"%. c #D66A0E",
"&. c #C77926",
"*. c #CD752A",
"=. c #E57616",
"-. c #8A7A57",
";. c #8F704F",
":. c #A9764F",
">. c #887969",
",. c #847C73",
"<. c #847C7A",
"1. c #92786E",
"2. c #A16556",
"3. c #C57E6A",
"4. c #798534",
"5. c #7B8257",
"6. c #79824A",
"7. c #7B836D",
"8. c #B28D33",
"9. c #9D852D",
"0. c #CB8703",
"q. c #D68705",
"w. c #CA8319",
"e. c #D78618",
"r. c #D79513",
"t. c #E68805",
"y. c #E89214",
"u. c #C98529",
"i. c #D7882A",
"p. c #DA9629",
"a. c #C78835",
"s. c #D68A37",
"d. c #D99636",
"f. c #CC9536",
"g. c #E59828",
"h. c #E79A35",
"j. c #EA902E",
"k. c #DDA336",
"l. c #E5A429",
"z. c #E6A539",
"x. c #F1AC38",
"c. c #E8A513",
"v. c #858959",
"b. c #8C9053",
"n. c #B28C50",
"m. c #868968",
"M. c #8C847C",
"N. c #888579",
"B. c #978979",
"V. c #959679",
"C. c #91926C",
"Z. c #A88C74",
"A. c #A79478",
"S. c #B89776",
"D. c #B08C6A",
"F. c #B9A873",
"G. c #96A876",
"H. c #C89646",
"J. c #DA9845",
"K. c #C38D52",
"L. c #E7984A",
"P. c #DDA548",
"I. c #D9A754",
"U. c #E8A846",
"Y. c #F3AA47",
"T. c #E9B449",
"R. c #F4B64A",
"E. c #E7A955",
"W. c #F3A954",
"Q. c #ECB656",
"!. c #F5B957",
"~. c #CD956C",
"^. c #D3A46F",
"/. c #F6BD69",
"(. c #EAB46E",
"). c #F2C256",
"_. c #F6C46A",
"`. c #A0C075",
"'. c #867B85",
"]. c #7C8790",
"[. c #8E8B84",
"{. c #898487",
"}. c #948C86",
"|. c #94928B",
" X c #9B948C",
".X c #989787",
"XX c #9D9A94",
"oX c #9A9795",
"OX c #8F8F90",
"+X c #A59A8A",
"@X c #A39D94",
"#X c #A29E9A",
"$X c #A99B94",
"%X c #AF958D",
"&X c #9DA38E",
"*X c #A7A38B",
"=X c #A4A195",
"-X c #A5A29B",
";X c #ABA59D",
":X c #ACAA9D",
">X c #AAA795",
",X c #B2AB9D",
"<X c #B5A898",
"1X c #ABB197",
"2X c #B6B29C",
"3X c #B8A789",
"4X c #AA9EA4",
"5X c #ABA5A2",
"6X c #ADAAA3",
"7X c #A9A8A6",
"8X c #B2ADA4",
"9X c #B4AEAA",
"0X c #B9ABA6",
"qX c #AEB2A6",
"wX c #B4B1A5",
"eX c #B5B2AB",
"rX c #BAB4AD",
"tX c #BBB6A8",
"yX c #BBB5B2",
"uX c #BDBAB4",
"iX c #B5B5B2",
"pX c #B3ACB4",
"aX c #9D9CA1",
"sX c #C9A885",
"dX c #CFB196",
"fX c #EBB68E",
"gX c #C4B5A9",
"hX c #C3BDB9",
"jX c #C4BBB4",
"kX c #CBAFA9",
"lX c #E0A994",
"zX c #B9C4B3",
"xX c #C6C2BC",
"cX c #CAC5BC",
"vX c #CCC6B8",
"bX c #D3C9BB",
"nX c #D2C8AD",
"mX c #EED1B7",
"MX c #ECCC9D",
"NX c #B6B0C3",
"BX c #CBC6C1",
"VX c #CEC9C3",
"CX c #C5C8C3",
"ZX c #D4CBC5",
"AX c #DBD6CC",
"SX c #D9D4C7",
"DX c #DCDBD5",
"FX c #E2D9C9",
"GX c #E2DDD3",
"HX c #E2D7D9",
"JX c #EDD3C9",
"KX c #E9E4D9",
"LX c #EAE3D0",
"PX c #F5F2EE",
"IX c #DCE2D8",
"UX c #C1B3C2",
/* pixels */
"7XXX-X;X;X$X:X8X7X9XwX,XtX;X;X-X<X;X6X7X7X:X:X>X5X8X8X9X6X6X6X9X9X,X9X8X8X,X,X0X:XwXqX8X9X8X6XqX9X8X:X:X6X8X;X5X#XoXl B {.B k D ",
"@X6X8X;X@X;X6X5XqXiX8X:X9X#X-XwX7X5X6X8X,X,X7X7X0X:X,X8X8X9X8X:X;XrXeX;X8X8X;XtX0X2X,X9X9X8X,X9X6X:X8X8X5X:X#X@X@X[.k <.C B N k ",
":X6X#X7X-X7X;X8X8X0X:X6X7X7X9X=X7X9X6X=X<X,X#XpX:X,X9XwXeXtXtXtXiX9X9XwXeXrX6XqXrXwX,X9X9X,X,XtX9X8X:X6X;X;X;X#X[.x S <.h S N 5 ",
"@X6X9X7X7X5X<X*X;X=X=X5X#X:X<X3X,X:X6X7X9XeX8X8XwXwXeXwX9XwX8X,X9X:X9XwX:XeXrXeXpXwX:XwXtX2XwXpXeXwX9X9X6X;X#XOXx g A B 5 D F x ",
"=X-X#XXXXX.X%XdX9X;X-XXXXXB.;.3XtX<XwXwX=X:XtXqX=X;X:X:X8XeX2X,X0XgX<X+X,XwX,XtXeXeXqXeXyXwXeXiXeX9X8XeX6X6X-X[.g h '.A l l , {.",
"6X@X7X@XB.z -.dXeX6X6X=X=XB.n S.6X:X+XZ.3XdX>X-X:X:X:X*X+X.X+X+XA.>.m.+X,XjX9XtXwXtXeXpXiXiX9X1X9X9X9XtX9X9X6XM.x l '.S F $ k {.",
":X6X;X:X8X>X$X<X9X-X9X6X6XeX<X<X9XXXn p Z.2X=XXX.XV.V.C.v.v.C.Z.A.m.$XgXeX8XwXtX2XyX0X3X<XgXyXwXtXrX9XrX9X6X@XB l A {.l F X B '.",
":XtX:X5X5XeX6XeX:X,X:X:X9X7XeX9X8X6X:X$X*X2X1XV.V.m.-.s b.b.b.C.C.+XgXrX9XeXeXeX9XyX<XF.F.kXUXyXyXeX#XXX X#X#XS {.|.A k 5 + OXA ",
"<X7X7X*X1X6XpX9XwX;X:X1XwX:XeX-X1X7XeX&X;XB.-.v.;.4.V..XC.C.:.b.%XwXwXwXwXiXqXpXjXiXsX+.sXzXiXpX:X4X<.x <.S <.Z '.S B l X k {.N ",
";X7X6X<XpX0X1X7X-XrXeX-X=XXX*X&X|.qX%XF.m.a s v.7.V..XC.;.-.G.yXgX0XwXtX9X0X0X2XeX5Xs.y.(.pX$X@X:XoXB N.S k 5 B {.A N F X S {.S ",
"6X-X0X%XS.3X+X*XV.V.&X>X1X:X.X.X-.m.t #.f.b.7. XN.5.t } -.C.1XNXqXqXeX6X9X6X,X>XtXsXO.=.I.{.'.A aXN <.{.,.f B aX'.S l < , '.S C ",
"1X&X}.p s S.5XV.XXN.7.5.5.C.b.6.6.a .XD.0.p.F.A a p t 5..X*X1X<X:X6X9X6XuXrXuXyXoXK.+.q.P.vXxXCXkXaX%X0X'...'.B.,.N l O 3 oXS l ",
".X*XV.<.N.XX5XoXN.5.5.b.G.v.v C.6.oX=X5.a.i.0.w.;.m m =X7X8XyXjXvXAXDXHXKXFXZX4X' O.$.q.E.mXmXJXZXnXbXNXn.c.vX0X[.V 5   k OXk l ",
"7XM.m.m..XXXM.v.G.5.4.s 5.C..XiX1XaXN.5.| f.a.y.H.C.[.gXCXIXPXPXPXPXPXPXIXSXbXB.^ y.+.q.q.r.r.O.q.+.f.L.0.8.I.~.lXdXA.-.}.'.q q ",
"|.V.G.4.4.C.7.4.6.v 5.&X1XwXwXqXaXG.v.b.] 0.j._ q.I.FXPXPXPXmX~.dXMXmXKXKXGX<XM i.h.p.e.$.e.q.0.$.p.p.c.c.O.&.t.+.=.j.L.^.sX'.N ",
"4.v.4.4.6.4.b.7.5.1X:XqXeX6X*XXXv.4.5.6.6. .q.i.$.q.^.FXKXcX~.W %.@.a.^.bXjX:.} g.p.a.0.O.#.q.f.p.z.k.p.k.l.z.z.c.c.t.t.t.r.(.UX",
"b.4.a v.C..X*XqXeX6X=XV.V.m.5.4.b.5.5.t .X:.O.i.#.$.+.u.MXA.^.%XK i.+.o.^ ] :.$.q.p.p.i.w.u.d.d.z.J.f.T.T.Q.Q.k.k.).T.z.c.q.q.L.",
"7.5.&X1X-XqXeX6X7XqX-XXXN.N.7.4.6.a b C.xXb.O.#.e.) &.O.+. .D.<XG ^ +.d.Q / 0.r.#.i.8.8.8.u.i.f.f.f.P._.Q.I.T.Q._.).!._.R.z.g.=.",
"7X1X7X-X5X7X#XoX|.7.7.D M M d 6.s m qXIXDXD.^ i.o.0.^ R *.R P ~.2.7 @.` ` i.#./ ~ } } ` _ f.H.f.P.P.P._./.Q._./._.Q.k.I.(.(.R.x.",
"7XqX1XaX5X;X.X.X7.7.s s s d > C.[.iXIXKXLXsXP &./ R R o.) | ^ o.:.G 9  .u.&.J.#.a.a.a.I.H.u.u.u.d.k.Q.I.I.!.!._.Q.).)._._.Q.T.).",
"6X=X=X8X#X[.m.n D s a s > > y Z iXKXIXKXGXgXI &.[ #.T Y T T ~ Y E r r  .#.i.8.a.u.&.a.H.a.a.f.h.f.E.E.E.Q.!./.T.k.T.Q.Q.T.R.)._.",
"eX9X:X XN.Z b i d i j j > i 4 N.DXKXGXKXGXZX] ~ &.~ { E Y Y K L G 9 Q w.&.| ) } | u.u.#.#.f.f.s.J.H.J.z.Q.!.P.k.Q.U.h.U.!.T.T.Q.",
"9X-X=XqXV.M s v t s A 7.s i M VXKXFXKXDXAXAXC.K ) E K ~ L K J G 9 9 u.a.( ~ _ ) #._ | 8.n.H.f.f.h.U.U.T.T.U.h.U.Q.!.U.!.!.T.T./.",
"6X;XqX&X5.6.6.t i [.[.|.S D 7XLXKXFXIXAXAXSX<XJ R / K P P K r r 8 ( ` P (  . .( ` | _ } } 8.n.Q.U.z.Y.U.U.x.z.W.U.z.U.I.J.U.Y.a.",
":X&X5.v 4.s M b m [.|.7.Z b SXKXKXDXAXAXSXSXgXp ! ..R L L J 9 r r ~ #.J K [ ~ ~ ~ ) ( ) u.*.| n.^.(.^.H.&. .{ [ [ @.$.q.c.y.l.e.",
"V.M 6.6.m 7.|.m [.&XN.A j M.DXGXDXGXGXAXSXZXnXB.L ^ K P J J 9 r 9.~ ( ( ( P P Q } I *.J.8.H.n.n.`.H.n.8.@.$.t.*.g.x.g.g.y.y.e.d.",
"j a a m aXaX[.V .XN.Z b 4 8XKXAXLXAXAXSXVXvXvX+Xr ~ K P J r 9 r ~ ! P  .( P Q :.] n.8.n.b.F.V.C.I.r.H.F.h.l.x.g.l.g.g.l.p.g.e.$.",
"4.t d .XoXV.V.{.{.B b j = tXKXGXAXAXSXSXbXvXvXwX;.P T J J r 9 I ! L P ( ! ( U Q $.&.8.9.n.n.p 9.O.q.P.I.T.p.g.z.z.h.j.l.l.z.h.g.",
"t d |.&X.X[.[.7.Z x j y & zXGXDXAXAXAXVXVXvXvXgX1.r ( L J J L U n. .~ P U E ~ _ :.n.6.G.G.9 G 8. .o.O.=.g.Y.h.g.l.h.s.h.l.h.p.z.",
"d .XoXoX|.OX{.Z b k q < . tXLXDXFXSXSXbXVXzXwX>Xm.p ~ L r U ` Q [ _ ~ ( | ~ ) 8.b.] [ D.b.U 9 b.{ X.%.%.X.i.h.l.g.p.U.E.j.y.U.mX",
"OX&X|.aXOXN.Z B l g < <   :XLXAXFXZXZXvXvXwX&X.XN.' U J J ` [ ` ` ` ( ( &.&.*.| P K ] 9.} _ Y :.%.X.$.o.*.L.g.h.L.p.x.h.p.y._.PX",
"aX7XXX[.N.7.V B h 4 < 4   [.AXSXSXZXSXvXgX*X*XtX.Xp U I L }  .) Q ( | [  .i.) E Y L G r I / $.} { X.*.X.p.x.g.d.J.g.j.s.J.!.(.MX",
"XXXXoX|.[.A S k y 3 ; * O x bXSXZXSXvXxXxXrXtX6X|.p I ( ( ) ~ | ` ) u.&.&.^ ( ~ E P P L J K u.e.*.#.%.u.Y.p.j.h.h.U.E.L.J.h.j.c.",
"XXOXOXM.7.Z B j y = $ ; 3 O 0XFXbXSXSXvXjXtXtX>X{.p ] | [ _ _ a.H.&.#.) ~ ( T ! Q L ~ ` ..K P w.u.p.=.h.h.g.s.d.U.U.h.h.h.h.x.x.",
"XXN. X[.7.A b j y < * < 1 . Z vXZXbXbXvXgXtX2X>X}.' ` ( P ` | s.u.*.) T E ( Q ~ ! ! ( a.) _ } | o.p.W.$.i.i.L.Q.h.e.i.z.Y.Y.Y.Y.",
"-X}.|.].].Z c h 5 < = % 1 2 # :XbXvXbXbXyX9X9X.XB.Q T P ! &.s.i.^ &.) ( Q J P } ` ( ) ) ^ _ u.! X.p.L.e.h.!.W.h.e.e.z.R.!.U.U.x.",
"oXXX XM.<.V x j 3 = = < < 3 $ y hXZXjXnXxXqX#X}.;.~ R ) u.d.*.#._ ^ T P ( P ( ~ ( ~ _ ~ &.&.R o.*.d./.j.h.L.e.p.x.z.U.R./.!.Y.h.",
"|.oXm.:.n.>.B h y = = 1 = ; 0 . B hXbXuXwX8XB.Z.[ _ #.i.d.u.) ) / T ~ ~ ) | ~ _ ^ / _ _ ) ) G X.J.W.L.R g.Y.g.Y.Y.).!.x.T.x.Y.R.",
":X>.u 9 ' m b l q * $ = 2 = ; 1 . Z bXxX5X%Xn.} u.s.d.u.u.*.&.| ) ) ) _ &.i.) #.O._ u.) ) ^ *.*.J.L.Y =.Y.d.r.R.Q.).R.R.x.Y.Y.Q.",
"XX1.>.V Z >.n k q ; < * = ; 1 = = . V uXyX-.} e.p.J.u.~ E &.#.L ~ u./ / i.O.#.#.#.*.s.Y ^ $.h.W.s.o.=.=.z.R.c.R.).T.T.T.W.W.!.R.",
":.;.:.Z.%X,.V z y 4 : : > : = ; ; <   C %X} e.s.g.i.L # r %.^ G ) u.| O.e.| | ^ u.) ) Y ) W.J.{ G R +.i.g.x.l.R./.P.R.Y.W._.T.!.",
"A.Z.p ' ~.B.C x j 0 8 : # = 1 = = 1 &   U t.r.0._ ' w 8 9 ) ` O.w./ O.$.X.) ..Y $.W R o.p.E.:.% H X.o.e.+.+.g.R.l.R.Y.U.fX!.x.mX",
"S.Z.8 8 ' ;.Z S k 4 # o O < = - < > 6 8 #.i.~ sX%Xp p p 9 E 0.| @.%.i.u.H R %.Y W @.) u.J.s.@.Y G $.^ ) W W *.x.Q.L.W.(._.x./.JX",
"^.S.M z c -.,.B b u > % + 2 = ; = ; > < w 8 @ z ,XtX}.I 7 9 $.r.#.$.j.*.Y W @.@.^ R &.J.d.q.+.o.H ..H G 9 K ^ $.W.E.(.fXx.).mXJX",
"n.S.-XOXoX}.N.Z C j y ; $ = : : = < = : 6 @ #     C  XA.c ' / $.#.@.*.e.y.W Y @.*.s.s.g.i.i.i.$.+.R Y G 9 9 G W X.x.Q.z.R.MXJXMX",
";.$X;X5X-XM.[.,.Z b j w w : # $ 1 = - = O > $ , @ o o b M c { #.O.*.*.d.W.J.K O.O.+.%.+.t.t.+.+./ | I G G H 7 7 H +.l.E.MXmXnXZX",
"5X-X$X XXXOX|.N.Z A c d ' : o # # = = % < $ % $ , +   X % g p ^ #.d.u.e.*.^.D.~.K.:.K.~.^.^.gXkXlXkX2XS.:.2.2.2.' 3.lXmXmXmXHXHX",
"7XXX;X@XoXoX[.}.[.C : 8 9 : o o = % 2 < = = < # # + + +     X K *.{ [  .:.sXlXkXkXJXJXmXmXJXLXJXmXZXbXkXnXvXkXkXbXcXZXvXzXiX9X2X",
"6X>X$X6X,X=X#XOX|.A g 4 y y 3 < < - 1 1 < - = - * # $ + + + . p I 8 8 q z V 1.<X<XgXjXjXvXbXbXbXZXbXvXvXhXvXjXgX8X X,.C <.$X4XtX",
"B.Z.dX5X8X*X$X@X.XM.B.>.n p q 3 ; - - 1 1 - % - 1 - = * $ $ o : X X X X X X @ + q h c C >.,.1.,.N.,.,.A Z x h q < 2 3 F }.pX5XhX",
"i c A.Z.D.3X+X=X@XB.n Z.1.z x 0 ; ; ; ; 1 ; ; 4 2 ; : = * < - # * * $ $ + O o . . . o . . . . . . .   . + , 5 q l k C S <.5XuXyX",
"0 h ' ' n.+X7XoX}.>.p ;.>.V z u u u q 1 ; 1 1 ; 2 - : : ; * 2 * : : : % = $ O + o + $ , < 3 5 q F g h h h l x x x x x S B '.pXhX",
"B.S o 9 :.*X@X|.A o e ;.>.7.A Z V V x h q 0 0 2 < 1 0 e 2 < 1 3 2 5 2 ; = = = * $ + o   . O $ < < 5 5 5 5 g g l g q 5 g g x A 7X",
":X XM.>.$X1X+X<XoXB.B. X X[.OXM.<.A Z V z h 0 0 2 4 0 2 0 0 3 0 q 4 0 0 w 0 0 4 4 3 1 * $ O . .                     X   g k x aX",
":X9X:XiX5Xc D.dX:X;XXX@X+X#XoXOX}.{.<.,.n x j 0 q 0 0 0 q 0 0 w 0 w y y y g h k y y u u u y q q 3 3 2 * $ + O .       O   k k C ",
"6X7X4XM.x p n.F.,X-X7X5X#X$X@XXX|.|.|.<.>.1.1.z u u q u y y y u w u h u u j p u x x x x b B n n V Z Z V V B b B B x j 3 $ q OX#X",
"8X:X[.V o - n 3X9X:X6X6X;X;X#X#XB.D.^.B.c D.S.>.x x b x x b b x x x x z x c n C V Z Z >.,.,.N.[.}.}. XXX@X=X=X-X;X6X6X=X}.|.6XVX",
"6X:X8X:X}.+X;XwXwX8X:X;X#X#XoX<.u :.S.x % i D.}.,.,.,.,.M.1.M.M.[.M.M.,.<.M.N.M.M.M.B.|..X X+X@X=X-X:X6X6XeXrXrXrXuXxXVXZXZXVXcX",
"9XeXeX6XgXtXwX9X6X:XeX9X;X-X{.h $ z Z.<.x >.Z.|..X.X X X X+X@X@X@X@X@XXXXX+X@XXX@X=X-X6X;X6X9XwXeXeXtXrXuXxXxXcXBXBXBXVXSXIXLXSX",
"6XeX9X6X6X8X6XeXtX6X6X8X6XeX9XXX X+X>X6X5X$X@X#X@X@X-X;X;X5X:X5X5X:X5X:X6X6X6X8X6X9X9XeXeXrXrXuXuXuXhXhXxXvXBXBXBXVXVXBXZXAXDXKX",
"9XeX9XrX9XyXeXeXwXeXeXeX9X9X6X8X9X6X:X;X7X:X;X5X8X9X9XwX9XtX9XtXrXrXyXiXrXrXrXrXeXyXuXuXuXuXhXhXxXxXxXvXBXBXZXVXVXVXBXVXSXAXIXKX",
"rXwX9X0X6XwXiX9X9XuXeXeXyXeX9XeX6XqXqX6X9XqXqX9XtX0XrXeX9XyXrXiXrXrXyXuXyXyXyXjXjXhXuXhXhXxXxXhXxXxXxXxXBXBXVXVXZXBXBXBXBXVXAXKX",
"eXeXyXrXeXeXiXeX9XeXeXeXrXeX9XeXyX9XeXtXtXiXeXuXrXyXyXuXyXjXuXyXyXjXuXuXuXhXjXhXjXhXhXhXxXBXxXxXxXxXxXxXUXBXBXBXCXVXVXZXVXCXVXAX",
"iXuXeXeXeXwXqXeXeXeXeXuXeXeXeXeXjXiXiXrXgXiXiXjXuXyXuXyXuXuXyXuXuXuXuXuXuXuXuXuXhXhXhXhXhXhXcXxXCXCXVXVXCXBXBXCXVXZXBXBXVXVXZXCX"
};
